<svg width="58" height="58" viewBox="0 0 58 58" fill="none" xmlns="http://www.w3.org/2000/svg">
<path d="M10.2499 28.9996C10.2499 24.0269 12.2253 19.2578 15.7416 15.7416C19.2578 12.2253 24.0269 10.2499 28.9996 10.2499C34.2413 10.2696 39.2724 12.3149 43.041 15.9582L47.7493 20.6664" stroke="#00BCD4" stroke-width="1.5" stroke-linecap="round" stroke-linejoin="round"/>
<path d="M48.7493 15.5015V21.5015H42.7493" stroke="#00BCD4" stroke-width="1.5" stroke-linecap="round" stroke-linejoin="round"/>
<path d="M47.7493 28.9996C47.7493 33.9723 45.7739 38.7414 42.2576 42.2576C38.7414 45.7739 33.9723 47.7493 28.9996 47.7493C23.7579 47.7296 18.7268 45.6843 14.9582 42.0411L10.2499 37.3328" stroke="#00BCD4" stroke-width="1.5" stroke-linecap="round" stroke-linejoin="round"/>
<path d="M16.2499 37.3328H10.2499V43.3328" stroke="#00BCD4" stroke-width="1.5" stroke-linecap="round" stroke-linejoin="round"/>
<path d="M37.8135 25.0826C37.8132 24.7392 37.7225 24.4018 37.5506 24.1045C37.3787 23.8071 37.1317 23.5602 36.8342 23.3885L29.9793 19.4714C29.6815 19.2995 29.3438 19.209 29 19.209C28.6562 19.209 28.3185 19.2995 28.0207 19.4714L21.1658 23.3885C20.8683 23.5602 20.6213 23.8071 20.4494 24.1045C20.2775 24.4018 20.1868 24.7392 20.1865 25.0826V32.9169C20.1868 33.2603 20.2775 33.5977 20.4494 33.895C20.6213 34.1924 20.8683 34.4393 21.1658 34.611L28.0207 38.5281C28.3185 38.7 28.6562 38.7905 29 38.7905C29.3438 38.7905 29.6815 38.7 29.9793 38.5281L36.8342 34.611C37.1317 34.4393 37.3787 34.1924 37.5506 33.895C37.7225 33.5977 37.8132 33.2603 37.8135 32.9169V25.0826Z" stroke="#00BCD4" stroke-width="1.5" stroke-linecap="round" stroke-linejoin="round"/>
<path d="M20.4803 24.1034L29 28.9998L37.5197 24.1034" stroke="#00BCD4" stroke-width="1.5" stroke-linecap="round" stroke-linejoin="round"/>
<path d="M29 38.7926V28.9998" stroke="#00BCD4" stroke-width="1.5" stroke-linecap="round" stroke-linejoin="round"/>
</svg>
