<svg xmlns="http://www.w3.org/2000/svg" width="32" height="32" viewBox="0 0 24 19">
  <defs>
    <linearGradient id="stepfun-grad" x1="0" y1="0" x2="1" y2="0">
      <stop offset="0" stop-color="#b36bfe"/>
      <stop offset="1" stop-color="#255fff"/>
    </linearGradient>
  </defs>
  <path fill="url(#stepfun-grad)" d="M19.245 2.864c1.322 1.36 1.877 3.216 2.11 5.817 0.622 0 1.2 0.135 1.592 0.654l0.73 0.964c0.21 0.278 0.323 0.61 0.323 0.955l0 2.62c0 0.339-0.173 0.669-0.453 0.868-3.308 2.36-7.39 4.258-11.547 4.258-4.6 0-9.205-2.583-11.547-4.258-0.28-0.2-0.452-0.53-0.453-0.868l0-2.62c0-0.345 0.113-0.679 0.321-0.956l0.73-0.963c0.392-0.517 0.974-0.654 1.593-0.654l0.029-0.297c0.25-2.446 0.81-4.213 2.082-5.52 2.461-2.54 5.71-2.851 7.146-2.864l0.198 0c1.436 0.013 4.685 0.323 7.146 2.864m-7.244 4.328c-0.284 0-0.613 0.016-0.962 0.05-0.123 0.447-0.305 0.85-0.57 1.108-1.05 1.023-2.316 1.18-2.994 1.18-0.638 0-1.306-0.13-1.851-0.464-0.516 0.165-1.012 0.403-1.044 0.996-0.04201 0.96076-0.06301 1.92232-0.063 2.884l-0.002 0.48q-0.002 0.844-0.013 1.69c0.002 0.326 0.204 0.63 0.51 0.765 2.482 1.102 4.83 1.657 6.99 1.657 2.156 0 4.504-0.555 6.985-1.657 0.30547-0.13327 0.50487-0.43276 0.51-0.766 0.03-1.682 0.006-3.372-0.076-5.053-0.031-0.596-0.528-0.83-1.046-0.996-0.546 0.333-1.212 0.464-1.85 0.464-0.677 0-1.942-0.157-2.993-1.18-0.266-0.258-0.447-0.661-0.57-1.108-0.31901-0.03205-0.63938-0.04873-0.96-0.05l-0.001 0z m-2.525 4.013c0.539 0 0.976 0.426 0.976 0.95l0 1.753c0 0.525-0.437 0.95-0.976 0.95-0.53165 0.00667-0.96832-0.41837-0.976-0.95l0-1.752c0-0.525 0.437-0.951 0.976-0.951m5 0c0.539 0 0.976 0.426 0.976 0.95l0 1.753c0 0.525-0.437 0.95-0.976 0.95-0.53165 0.00667-0.96832-0.41837-0.976-0.95l0-1.752c0-0.525 0.437-0.951 0.976-0.951m-6.841-8.618c-1.05 0.102-1.935 0.438-2.385 0.906-0.975 1.037-0.765 3.668-0.21 4.224 0.405 0.394 1.17 0.657 1.995 0.657l0.09 0c0.649-0.013 1.785-0.176 2.73-1.11 0.435-0.41 0.705-1.433 0.675-2.47-0.03-0.834-0.27-1.52-0.63-1.813-0.39-0.336-1.275-0.482-2.265-0.394m6.465 0.394c-0.36 0.292-0.6 0.98-0.63 1.813-0.03 1.037 0.24 2.06 0.675 2.47 0.968 0.957 2.136 1.104 2.776 1.11l0.044 0c0.825 0 1.59-0.263 1.995-0.657 0.555-0.556 0.765-3.187-0.21-4.224-0.45-0.468-1.335-0.804-2.385-0.906-0.99-0.088-1.875 0.058-2.265 0.394m-2.1 2.134c-0.24 0-0.525 0.015-0.84 0.044 0.03 0.16 0.045 0.336 0.06 0.526l-0.001 0.159c-0.00119 0.08349-0.00586 0.1669-0.014 0.25 0.225-0.022 0.425-0.027 0.612-0.028l0.366 0c0.187 0 0.387 0.006 0.612 0.028-0.015-0.146-0.015-0.277-0.015-0.409 0.015-0.19 0.03-0.365 0.06-0.526-0.27916-0.02775-0.55947-0.04243-0.84-0.044"/>
</svg>
